<?xml version="1.0" standalone="no"?>
<!DOCTYPE svg PUBLIC "-//W3C//DTD SVG 20010904//EN"
 "http://www.w3.org/TR/2001/REC-SVG-20010904/DTD/svg10.dtd">
<svg version="1.0" xmlns="http://www.w3.org/2000/svg"
 width="512.000000pt" height="512.000000pt" viewBox="0 0 512.000000 512.000000"
 preserveAspectRatio="xMidYMid meet">

<g transform="translate(0.000000,512.000000) scale(0.100000,-0.100000)"
fill="#000000" stroke="none">
<path d="M395 4557 c-116 -30 -192 -95 -219 -187 -40 -136 -40 -503 0 -780 75
-519 269 -1059 453 -1263 82 -90 366 -185 653 -218 l106 -12 -63 -49 c-241
-182 -339 -524 -265 -921 18 -93 69 -266 95 -322 79 -166 269 -256 476 -225
209 30 357 123 492 308 197 271 330 562 401 875 l22 98 23 -98 c37 -154 86
-285 171 -458 160 -328 332 -542 501 -624 106 -51 190 -71 301 -71 190 0 330
82 398 234 59 130 107 343 117 516 15 264 -67 508 -221 660 -58 57 -59 70 -2
70 53 0 280 51 383 85 238 80 298 137 428 408 130 273 230 616 285 982 27 176
38 536 21 680 -14 120 -34 167 -93 222 -148 135 -474 106 -853 -76 -242 -116
-390 -224 -596 -436 -331 -339 -524 -585 -635 -810 l-49 -98 -14 94 c-10 65
-10 94 -3 97 35 11 92 67 113 109 20 39 24 64 24 133 0 77 -3 90 -32 142 -31
54 -32 58 -22 120 30 194 129 366 244 426 l39 20 38 -26 c53 -35 126 -28 170
16 61 60 45 182 -27 216 -70 33 -161 8 -192 -53 -6 -13 -31 -34 -56 -46 -100
-48 -205 -152 -257 -255 -29 -58 -66 -171 -79 -240 l-12 -65 -55 3 -54 4 0 42
c0 58 -35 180 -73 251 -42 78 -124 165 -204 217 -43 28 -69 52 -78 75 -35 84
-164 99 -230 27 -30 -32 -34 -107 -10 -155 33 -62 121 -87 187 -53 38 19 54
13 122 -47 92 -81 148 -197 161 -335 7 -68 6 -71 -18 -87 -14 -9 -37 -41 -52
-72 -24 -49 -27 -64 -23 -128 5 -85 42 -164 94 -203 l31 -24 -23 -93 c-12 -50
-23 -94 -24 -97 0 -3 -24 40 -53 95 -64 121 -72 134 -161 255 -144 198 -533
617 -689 743 -224 181 -496 320 -750 383 -124 30 -289 40 -362 21z"/>
</g>
</svg>
